<svg xmlns="http://www.w3.org/2000/svg" viewBox="0 0 1280 800" font-family="'Circular','Inter','Segoe UI',system-ui,sans-serif">
  <defs>
    <linearGradient id="topfade" x1="0" y1="0" x2="0" y2="1">
      <stop offset="0%" stop-color="#5038A0"/>
      <stop offset="100%" stop-color="#121212"/>
    </linearGradient>
    <linearGradient id="g-c1" x1="0" y1="0" x2="1" y2="1"><stop offset="0%" stop-color="#1DB954"/><stop offset="100%" stop-color="#0F6B30"/></linearGradient>
    <linearGradient id="g-c2" x1="0" y1="0" x2="1" y2="1"><stop offset="0%" stop-color="#E91429"/><stop offset="100%" stop-color="#7A0A14"/></linearGradient>
    <linearGradient id="g-c3" x1="0" y1="0" x2="1" y2="1"><stop offset="0%" stop-color="#1E3264"/><stop offset="100%" stop-color="#0E1A40"/></linearGradient>
    <linearGradient id="g-c4" x1="0" y1="0" x2="1" y2="1"><stop offset="0%" stop-color="#A56752"/><stop offset="100%" stop-color="#5A2F22"/></linearGradient>
    <linearGradient id="g-c5" x1="0" y1="0" x2="1" y2="1"><stop offset="0%" stop-color="#E61E32"/><stop offset="100%" stop-color="#8C0C18"/></linearGradient>
    <linearGradient id="g-c6" x1="0" y1="0" x2="1" y2="1"><stop offset="0%" stop-color="#7358FF"/><stop offset="100%" stop-color="#3A1B8C"/></linearGradient>
    <linearGradient id="g-r1" x1="0" y1="0" x2="1" y2="1"><stop offset="0%" stop-color="#FF6B6B"/><stop offset="100%" stop-color="#C0392B"/></linearGradient>
    <linearGradient id="g-r2" x1="0" y1="0" x2="1" y2="1"><stop offset="0%" stop-color="#F8B500"/><stop offset="100%" stop-color="#B8860B"/></linearGradient>
    <linearGradient id="g-r3" x1="0" y1="0" x2="1" y2="1"><stop offset="0%" stop-color="#27AE60"/><stop offset="100%" stop-color="#145A32"/></linearGradient>
    <linearGradient id="g-r4" x1="0" y1="0" x2="1" y2="1"><stop offset="0%" stop-color="#3498DB"/><stop offset="100%" stop-color="#1A5276"/></linearGradient>
    <linearGradient id="g-r5" x1="0" y1="0" x2="1" y2="1"><stop offset="0%" stop-color="#9B59B6"/><stop offset="100%" stop-color="#4A235A"/></linearGradient>
    <linearGradient id="np" x1="0" y1="0" x2="1" y2="1"><stop offset="0%" stop-color="#FFB088"/><stop offset="100%" stop-color="#7A2A1F"/></linearGradient>
  </defs>

  <rect width="1280" height="800" fill="#000000"/>
  <rect x="0" y="0" width="240" height="720" fill="#000000"/>

  <g transform="translate(24 28)">
    <circle cx="14" cy="14" r="14" fill="#1DB954"/>
    <path d="M6 12 q8 -3 16 0 M7 16 q7 -2.5 14 0 M8 20 q6 -2 12 0" stroke="#000000" stroke-width="1.6" fill="none" stroke-linecap="round"/>
    <text x="38" y="20" fill="#ffffff" font-size="16" font-weight="800">Spotify Clone</text>
  </g>

  <g transform="translate(24 76)" font-size="13" font-weight="700">
    <g><path d="M0 12 l10 -10 l10 10 v10 h-20 z" fill="#ffffff"/><text x="32" y="18" fill="#ffffff">Home</text></g>
    <g transform="translate(0 36)"><circle cx="10" cy="12" r="8" fill="none" stroke="#B3B3B3" stroke-width="2"/><line x1="16" y1="18" x2="22" y2="24" stroke="#B3B3B3" stroke-width="2" stroke-linecap="round"/><text x="32" y="18" fill="#B3B3B3">Search</text></g>
    <g transform="translate(0 72)"><rect width="20" height="20" rx="3" fill="none" stroke="#B3B3B3" stroke-width="2"/><line x1="6" y1="8" x2="14" y2="8" stroke="#B3B3B3" stroke-width="2" stroke-linecap="round"/><line x1="6" y1="14" x2="10" y2="14" stroke="#B3B3B3" stroke-width="2" stroke-linecap="round"/><text x="32" y="18" fill="#B3B3B3">Your Library</text></g>
  </g>

  <line x1="24" y1="200" x2="216" y2="200" stroke="#282828"/>
  <g transform="translate(24 222)" font-size="12">
    <text fill="#B3B3B3" font-weight="800" letter-spacing="1.5">PLAYLISTS</text>
    <g transform="translate(0 22)" fill="#ffffff" font-weight="600">
      <text>Liked Songs</text>
      <text y="26">Today's Top Hits</text>
      <text y="52">RapCaviar</text>
      <text y="78">Pop Rising</text>
      <text y="104">Hot Country</text>
      <text y="130">All Out 2010s</text>
      <text y="156">Chill Vibes</text>
      <text y="182">Workout Beast</text>
      <text y="208">Late Night Drive</text>
      <text y="234">Lofi Lounge</text>
    </g>
  </g>

  <rect x="240" y="0" width="1040" height="160" fill="url(#topfade)"/>
  <rect x="240" y="160" width="1040" height="560" fill="#121212"/>

  <g transform="translate(264 28)">
    <circle r="16" cx="16" cy="16" fill="#000000"/>
    <path d="M20 10 l-6 6 l6 6" stroke="#ffffff" stroke-width="2.2" fill="none" stroke-linecap="round"/>
  </g>
  <g transform="translate(308 28)">
    <circle r="16" cx="16" cy="16" fill="#000000"/>
    <path d="M14 10 l6 6 l-6 6" stroke="#ffffff" stroke-width="2.2" fill="none" stroke-linecap="round"/>
  </g>
  <g transform="translate(1090 28)">
    <rect width="80" height="32" rx="16" fill="none" stroke="#ffffff" stroke-width="1.5"/>
    <text x="40" y="20" fill="#ffffff" text-anchor="middle" font-size="11" font-weight="800">Explore Premium</text>
  </g>
  <g transform="translate(1182 28)">
    <circle r="16" cx="16" cy="16" fill="#1A1A1A"/>
    <text x="16" y="20" fill="#ffffff" font-size="12" font-weight="800" text-anchor="middle">A</text>
  </g>

  <text x="264" y="100" fill="#ffffff" font-size="32" font-weight="900">Good evening, Ali</text>

  <g transform="translate(264 130)">
    <g><rect width="240" height="56" rx="6" fill="#2A2A2A"/><rect width="56" height="56" rx="6" fill="url(#g-c1)"/><text x="68" y="34" fill="#ffffff" font-size="13" font-weight="800">Liked Songs</text></g>
    <g transform="translate(252 0)"><rect width="240" height="56" rx="6" fill="#2A2A2A"/><rect width="56" height="56" rx="6" fill="url(#g-c2)"/><text x="68" y="34" fill="#ffffff" font-size="13" font-weight="800">Today's Top Hits</text></g>
    <g transform="translate(504 0)"><rect width="240" height="56" rx="6" fill="#2A2A2A"/><rect width="56" height="56" rx="6" fill="url(#g-c3)"/><text x="68" y="34" fill="#ffffff" font-size="13" font-weight="800">RapCaviar</text></g>
    <g transform="translate(756 0)"><rect width="240" height="56" rx="6" fill="#2A2A2A"/><rect width="56" height="56" rx="6" fill="url(#g-c4)"/><text x="68" y="34" fill="#ffffff" font-size="13" font-weight="800">Hot Country</text></g>
  </g>

  <text x="264" y="222" fill="#ffffff" font-size="22" font-weight="900">Made For You</text>
  <text x="1252" y="222" fill="#B3B3B3" font-size="11" font-weight="800" text-anchor="end">Show all</text>

  <g transform="translate(264 240)">
    <g>
      <rect width="172" height="240" rx="8" fill="#181818"/>
      <rect x="14" y="14" width="144" height="144" rx="6" fill="url(#g-c5)"/>
      <text x="86" y="92" text-anchor="middle" fill="#ffffff" font-size="38" font-weight="900">DM1</text>
      <text x="14" y="180" fill="#ffffff" font-size="13" font-weight="800">Daily Mix 1</text>
      <text x="14" y="198" fill="#B3B3B3" font-size="11">Sabrina Carpenter, Tate McRae,</text>
      <text x="14" y="212" fill="#B3B3B3" font-size="11">Olivia Rodrigo and more</text>
      <circle cx="142" cy="138" r="18" fill="#1DB954"/>
      <path d="M138 132 v12 l10 -6 z" fill="#000000"/>
    </g>
    <g transform="translate(192 0)">
      <rect width="172" height="240" rx="8" fill="#181818"/>
      <rect x="14" y="14" width="144" height="144" rx="6" fill="url(#g-c6)"/>
      <text x="86" y="92" text-anchor="middle" fill="#ffffff" font-size="38" font-weight="900">DM2</text>
      <text x="14" y="180" fill="#ffffff" font-size="13" font-weight="800">Daily Mix 2</text>
      <text x="14" y="198" fill="#B3B3B3" font-size="11">Drake, Kendrick Lamar,</text>
      <text x="14" y="212" fill="#B3B3B3" font-size="11">Travis Scott and more</text>
    </g>
    <g transform="translate(384 0)">
      <rect width="172" height="240" rx="8" fill="#181818"/>
      <rect x="14" y="14" width="144" height="144" rx="6" fill="url(#g-c1)"/>
      <text x="86" y="92" text-anchor="middle" fill="#ffffff" font-size="32" font-weight="900">DSCVR</text>
      <text x="14" y="180" fill="#ffffff" font-size="13" font-weight="800">Discover Weekly</text>
      <text x="14" y="198" fill="#B3B3B3" font-size="11">Your weekly mixtape of</text>
      <text x="14" y="212" fill="#B3B3B3" font-size="11">fresh music. Every Monday.</text>
    </g>
    <g transform="translate(576 0)">
      <rect width="172" height="240" rx="8" fill="#181818"/>
      <rect x="14" y="14" width="144" height="144" rx="6" fill="url(#g-r1)"/>
      <text x="86" y="92" text-anchor="middle" fill="#ffffff" font-size="32" font-weight="900">RDR</text>
      <text x="14" y="180" fill="#ffffff" font-size="13" font-weight="800">Release Radar</text>
      <text x="14" y="198" fill="#B3B3B3" font-size="11">Catch new music from</text>
      <text x="14" y="212" fill="#B3B3B3" font-size="11">artists you follow.</text>
    </g>
    <g transform="translate(768 0)">
      <rect width="172" height="240" rx="8" fill="#181818"/>
      <rect x="14" y="14" width="144" height="144" rx="6" fill="url(#g-r4)"/>
      <text x="86" y="92" text-anchor="middle" fill="#ffffff" font-size="32" font-weight="900">REPEAT</text>
      <text x="14" y="180" fill="#ffffff" font-size="13" font-weight="800">On Repeat</text>
      <text x="14" y="198" fill="#B3B3B3" font-size="11">Songs you love right now.</text>
    </g>
  </g>

  <text x="264" y="510" fill="#ffffff" font-size="22" font-weight="900">Trending now</text>
  <text x="1252" y="510" fill="#B3B3B3" font-size="11" font-weight="800" text-anchor="end">Show all</text>

  <g transform="translate(264 528)">
    <g>
      <rect width="172" height="186" rx="8" fill="#181818"/>
      <rect x="14" y="14" width="144" height="120" rx="6" fill="url(#g-r2)"/>
      <text x="86" y="84" text-anchor="middle" fill="#000000" font-size="20" font-weight="900">ESPRESSO</text>
      <text x="14" y="156" fill="#ffffff" font-size="12" font-weight="800">Espresso</text>
      <text x="14" y="172" fill="#B3B3B3" font-size="10">Sabrina Carpenter</text>
    </g>
    <g transform="translate(192 0)">
      <rect width="172" height="186" rx="8" fill="#181818"/>
      <rect x="14" y="14" width="144" height="120" rx="6" fill="url(#g-r5)"/>
      <text x="86" y="78" text-anchor="middle" fill="#ffffff" font-size="13" font-weight="900">BIRDS OF A</text>
      <text x="86" y="96" text-anchor="middle" fill="#ffffff" font-size="13" font-weight="900">FEATHER</text>
      <text x="14" y="156" fill="#ffffff" font-size="12" font-weight="800">Birds Of A Feather</text>
      <text x="14" y="172" fill="#B3B3B3" font-size="10">Billie Eilish</text>
    </g>
    <g transform="translate(384 0)">
      <rect width="172" height="186" rx="8" fill="#181818"/>
      <rect x="14" y="14" width="144" height="120" rx="6" fill="url(#g-c2)"/>
      <text x="86" y="86" text-anchor="middle" fill="#ffffff" font-size="20" font-weight="900">NOT LIKE US</text>
      <text x="14" y="156" fill="#ffffff" font-size="12" font-weight="800">Not Like Us</text>
      <text x="14" y="172" fill="#B3B3B3" font-size="10">Kendrick Lamar</text>
    </g>
    <g transform="translate(576 0)">
      <rect width="172" height="186" rx="8" fill="#181818"/>
      <rect x="14" y="14" width="144" height="120" rx="6" fill="url(#g-r3)"/>
      <text x="86" y="86" text-anchor="middle" fill="#ffffff" font-size="18" font-weight="900">A BAR SONG</text>
      <text x="14" y="156" fill="#ffffff" font-size="12" font-weight="800">A Bar Song (Tipsy)</text>
      <text x="14" y="172" fill="#B3B3B3" font-size="10">Shaboozey</text>
    </g>
    <g transform="translate(768 0)">
      <rect width="172" height="186" rx="8" fill="#181818"/>
      <rect x="14" y="14" width="144" height="120" rx="6" fill="url(#g-c4)"/>
      <text x="86" y="78" text-anchor="middle" fill="#ffffff" font-size="13" font-weight="900">I HAD SOME</text>
      <text x="86" y="96" text-anchor="middle" fill="#ffffff" font-size="13" font-weight="900">HELP</text>
      <text x="14" y="156" fill="#ffffff" font-size="12" font-weight="800">I Had Some Help</text>
      <text x="14" y="172" fill="#B3B3B3" font-size="10">Post Malone, Morgan Wallen</text>
    </g>
  </g>

  <rect y="720" width="1280" height="80" fill="#181818"/>
  <g transform="translate(16 730)">
    <rect width="60" height="60" rx="4" fill="url(#np)"/>
    <text x="30" y="36" text-anchor="middle" fill="#ffffff" font-size="16" font-weight="900">CS</text>
  </g>
  <g transform="translate(92 730)">
    <text y="22" fill="#ffffff" font-size="13" font-weight="700">Cruel Summer</text>
    <text y="40" fill="#B3B3B3" font-size="11">Taylor Swift</text>
    <g transform="translate(0 46)">
      <circle cx="6" cy="6" r="6" fill="none" stroke="#1DB954" stroke-width="1.5"/>
      <path d="M3 6 l2 2 l4 -4" stroke="#1DB954" stroke-width="1.5" fill="none" stroke-linecap="round"/>
    </g>
  </g>

  <g transform="translate(540 736)">
    <path d="M0 6 q8 -8 16 0 M22 12 l4 -2 l-4 -2 M0 14 q8 8 16 0 M22 8 l4 2 l-4 2" stroke="#B3B3B3" stroke-width="1.5" fill="none"/>
    <g transform="translate(40 0)"><rect width="2" height="14" fill="#B3B3B3"/><path d="M14 0 l-12 7 l12 7 z" fill="#B3B3B3"/></g>
    <g transform="translate(80 -8)">
      <circle r="14" cx="14" cy="14" fill="#ffffff"/>
      <path d="M10 6 v16 l12 -8 z" fill="#000000"/>
    </g>
    <g transform="translate(132 0)"><path d="M0 0 l12 7 l-12 7 z" fill="#ffffff"/><rect x="14" width="2" height="14" fill="#ffffff"/></g>
    <g transform="translate(160 0)"><path d="M0 8 a6 6 0 0 1 6 -6 h12 M16 -2 l4 4 l-4 4 M22 8 a6 6 0 0 1 -6 6 h-12 M6 18 l-4 -4 l4 -4" stroke="#1DB954" stroke-width="1.5" fill="none" stroke-linecap="round"/></g>
  </g>
  <g transform="translate(440 770)" font-size="10" fill="#B3B3B3">
    <text>1:32</text>
    <rect x="32" y="3" width="320" height="4" rx="2" fill="#3F3F3F"/>
    <rect x="32" y="3" width="120" height="4" rx="2" fill="#ffffff"/>
    <circle cx="152" cy="5" r="5" fill="#ffffff"/>
    <text x="358" y="0" dy="8">2:58</text>
  </g>

  <g transform="translate(1040 740)">
    <g stroke="#B3B3B3" stroke-width="1.5" fill="none"><line x1="0" y1="0" x2="14" y2="0"/><line x1="0" y1="6" x2="14" y2="6"/><line x1="0" y1="12" x2="9" y2="12"/></g>
    <g transform="translate(34 -2)"><rect x="0" y="0" width="20" height="14" rx="2" stroke="#B3B3B3" stroke-width="1.5" fill="none"/><rect x="6" y="14" width="8" height="3" fill="#B3B3B3"/></g>
    <g transform="translate(70 0)">
      <path d="M0 4 L6 4 L12 0 L12 14 L6 10 L0 10 Z" fill="#ffffff"/>
      <path d="M14 3 q4 4 0 8" fill="none" stroke="#ffffff" stroke-width="1.5"/>
    </g>
    <g transform="translate(96 6)">
      <rect width="100" height="3" rx="1.5" fill="#3F3F3F"/>
      <rect width="68" height="3" rx="1.5" fill="#ffffff"/>
      <circle cx="68" cy="1.5" r="4" fill="#ffffff"/>
    </g>
  </g>
</svg>
